<svg width="20.000000" height="20.000000" viewBox="0 0 20 20" fill="none" xmlns="http://www.w3.org/2000/svg" xmlns:xlink="http://www.w3.org/1999/xlink">
	<desc>
			Created with Pixso.
	</desc>
	<defs>
		<clipPath id="clip2081_47">
			<rect id="Frame" rx="0.000000" width="19.000000" height="19.000000" transform="translate(0.500000 0.500000)" fill="white" fill-opacity="0"/>
		</clipPath>
	</defs>
	<rect id="Frame" rx="0.000000" width="19.000000" height="19.000000" transform="translate(0.500000 0.500000)" fill="#FFFFFF" fill-opacity="0"/>
	<g clip-path="url(#clip2081_47)">
		<path id="Vector" d="M5.62 2.5L5.62 4.37M14.37 2.5L14.37 4.37M2.5 6.25C2.5 5.75 2.69 5.27 3.04 4.92C3.4 4.57 3.87 4.37 4.37 4.37L15.62 4.37C16.12 4.37 16.59 4.57 16.95 4.92C17.3 5.27 17.5 5.75 17.5 6.25L17.5 15.62C17.5 16.12 17.3 16.59 16.95 16.95C16.59 17.3 16.12 17.5 15.62 17.5L4.37 17.5C3.87 17.5 3.4 17.3 3.04 16.95C2.69 16.59 2.5 16.12 2.5 15.62L2.5 6.25ZM2.5 15.62L2.5 9.37C2.5 8.87 2.69 8.4 3.04 8.04C3.4 7.69 3.87 7.5 4.37 7.5L15.62 7.5C16.12 7.5 16.59 7.69 16.95 8.04C17.3 8.4 17.5 8.87 17.5 9.37L17.5 15.62" stroke="#5A5A5A" stroke-opacity="1.000000" stroke-width="1.500000" stroke-linejoin="round" stroke-linecap="round"/>
	</g>
</svg>
