<svg width="20.000000" height="20.000000" viewBox="0 0 20 20" fill="none" xmlns="http://www.w3.org/2000/svg" xmlns:xlink="http://www.w3.org/1999/xlink">
	<desc>
			Created with Pixso.
	</desc>
	<defs>
		<clipPath id="clip2081_39">
			<rect id="Frame" rx="0.000000" width="19.000000" height="19.000000" transform="translate(0.500000 0.500000)" fill="white" fill-opacity="0"/>
		</clipPath>
	</defs>
	<rect id="Frame" rx="0.000000" width="19.000000" height="19.000000" transform="translate(0.500000 0.500000)" fill="#FFFFFF" fill-opacity="0"/>
	<g clip-path="url(#clip2081_39)">
		<path id="Vector" d="M8.33 3.33L8.33 8.33L3.33 8.33L3.33 3.33L8.33 3.33Z" stroke="#5A5A5A" stroke-opacity="1.000000" stroke-width="1.500000" stroke-linejoin="round"/>
		<path id="Vector" d="M16.66 3.33L16.66 8.33L11.66 8.33L11.66 3.33L16.66 3.33Z" stroke="#5A5A5A" stroke-opacity="1.000000" stroke-width="1.500000" stroke-linejoin="round"/>
		<path id="Vector" d="M8.33 11.66L8.33 16.66L3.33 16.66L3.33 11.66L8.33 11.66Z" stroke="#5A5A5A" stroke-opacity="1.000000" stroke-width="1.500000" stroke-linejoin="round"/>
		<path id="Vector" d="M12.39 15.93C12.86 16.4 13.5 16.66 14.16 16.66C14.82 16.66 15.46 16.4 15.93 15.93C16.4 15.46 16.66 14.82 16.66 14.16C16.66 13.5 16.4 12.86 15.93 12.39C15.46 11.93 14.82 11.66 14.16 11.66C13.5 11.66 12.86 11.93 12.39 12.39C11.93 12.86 11.66 13.5 11.66 14.16C11.66 14.82 11.93 15.46 12.39 15.93Z" stroke="#5A5A5A" stroke-opacity="1.000000" stroke-width="1.500000" stroke-linejoin="round"/>
	</g>
</svg>
