<svg width="20.000000" height="20.000000" viewBox="0 0 20 20" fill="none" xmlns="http://www.w3.org/2000/svg" xmlns:xlink="http://www.w3.org/1999/xlink">
	<desc>
			Created with Pixso.
	</desc>
	<defs>
		<clipPath id="clip2081_51">
			<rect id="Frame" rx="0.000000" width="19.000000" height="19.000000" transform="translate(0.500000 0.500000)" fill="white" fill-opacity="0"/>
		</clipPath>
	</defs>
	<g opacity="0.700000">
		<rect id="Frame" rx="0.000000" width="19.000000" height="19.000000" transform="translate(0.500000 0.500000)" fill="#FFFFFF" fill-opacity="0"/>
		<g clip-path="url(#clip2081_51)">
			<path id="Vector" d="M10 11.66L10 17.5" stroke="#131313" stroke-opacity="1.000000" stroke-width="1.500000" stroke-linejoin="round" stroke-linecap="round"/>
			<path id="Vector" d="M7.5 15L12.5 15" stroke="#131313" stroke-opacity="1.000000" stroke-width="1.500000" stroke-linejoin="round" stroke-linecap="round"/>
			<path id="Vector" d="M12.35 5.97C12.98 6.6 13.33 7.44 13.33 8.33C13.33 9.21 12.98 10.06 12.35 10.69C11.73 11.31 10.88 11.66 10 11.66C9.11 11.66 8.26 11.31 7.64 10.69C7.01 10.06 6.66 9.21 6.66 8.33C6.66 7.44 7.01 6.6 7.64 5.97C8.26 5.35 9.11 5 10 5C10.88 5 11.73 5.35 12.35 5.97Z" stroke="#131313" stroke-opacity="1.000000" stroke-width="1.500000" stroke-linejoin="round"/>
			<path id="Vector" d="M12.5 2.5C12.5 3.16 12.23 3.79 11.76 4.26C11.29 4.73 10.66 5 10 5C9.33 5 8.7 4.73 8.23 4.26C7.76 3.79 7.5 3.16 7.5 2.5" stroke="#131313" stroke-opacity="1.000000" stroke-width="1.500000" stroke-linejoin="round" stroke-linecap="round"/>
		</g>
	</g>
</svg>
