<svg width="17.750015" height="16.500000" viewBox="0 0 17.75 16.5" fill="none" xmlns="http://www.w3.org/2000/svg" xmlns:xlink="http://www.w3.org/1999/xlink">
	<desc>
			Created with Pixso.
	</desc>
	<defs/>
	<path id="Vector" d="M4.4 7.62C5.07 7.62 5.68 7.25 6.09 6.72C6.74 5.89 7.55 5.21 8.47 4.72C9.08 4.4 9.6 3.92 9.85 3.29C10.03 2.85 10.12 2.37 10.12 1.9L10.12 1.37C10.12 1.2 10.19 1.05 10.3 0.93C10.42 0.81 10.58 0.75 10.75 0.75C11.24 0.75 11.72 0.94 12.07 1.29C12.42 1.65 12.62 2.12 12.62 2.62C12.62 3.58 12.4 4.49 12.02 5.3C11.8 5.77 12.11 6.37 12.62 6.37L15.23 6.37C16.08 6.37 16.85 6.95 16.94 7.8C16.98 8.15 17 8.51 17 8.87C17 11.15 16.22 13.36 14.79 15.14C14.46 15.54 13.97 15.75 13.45 15.75L10.1 15.75C9.7 15.75 9.3 15.68 8.92 15.55L6.32 14.69C5.94 14.56 5.54 14.49 5.14 14.5L3.79 14.5C3.86 14.67 3.93 14.83 4.02 15C4.18 15.33 3.95 15.75 3.58 15.75L2.82 15.75C2.08 15.75 1.4 15.31 1.18 14.61C0.89 13.66 0.74 12.67 0.75 11.68C0.75 10.39 0.99 9.15 1.44 8.02C1.69 7.37 2.34 7 3.04 7L3.91 7C4.31 7 4.54 7.46 4.33 7.8C3.62 8.97 3.24 10.31 3.25 11.68C3.25 12.68 3.44 13.63 3.79 14.5L3.79 14.5M12.62 6.37L10.75 6.37" stroke="#131313" stroke-opacity="0.600000" stroke-width="1.500000" stroke-linejoin="round" stroke-linecap="round"/>
</svg>
