<svg width="20.000000" height="20.000000" viewBox="0 0 20 20" fill="none" xmlns="http://www.w3.org/2000/svg" xmlns:xlink="http://www.w3.org/1999/xlink">
	<desc>
			Created with Pixso.
	</desc>
	<defs>
		<clipPath id="clip2081_59">
			<rect id="Frame" rx="0.000000" width="19.000000" height="19.000000" transform="translate(0.500000 0.500000)" fill="white" fill-opacity="0"/>
		</clipPath>
	</defs>
	<rect id="Frame" rx="0.000000" width="19.000000" height="19.000000" transform="translate(0.500000 0.500000)" fill="#FFFFFF" fill-opacity="0"/>
	<g clip-path="url(#clip2081_59)">
		<path id="Vector" d="M13.91 6.66C13.75 6.19 13.44 5.78 13.04 5.48C12.64 5.19 12.16 5.02 11.66 5L8.33 5C7.67 5 7.03 5.26 6.56 5.73C6.09 6.2 5.83 6.83 5.83 7.5C5.83 8.16 6.09 8.79 6.56 9.26C7.03 9.73 7.67 10 8.33 10L11.66 10C12.32 10 12.96 10.26 13.43 10.73C13.9 11.2 14.16 11.83 14.16 12.5C14.16 13.16 13.9 13.79 13.43 14.26C12.96 14.73 12.32 15 11.66 15L8.33 15C7.83 14.97 7.35 14.8 6.95 14.51C6.55 14.21 6.24 13.8 6.08 13.33" stroke="#5A5A5A" stroke-opacity="1.000000" stroke-width="1.500000" stroke-linejoin="round" stroke-linecap="round"/>
		<path id="Vector" d="M10 2.5L10 5M10 15L10 17.5" stroke="#5A5A5A" stroke-opacity="1.000000" stroke-width="1.500000" stroke-linejoin="round" stroke-linecap="round"/>
	</g>
</svg>
