<svg width="56.000000" height="56.000000" viewBox="0 0 56 56" fill="none" xmlns="http://www.w3.org/2000/svg" xmlns:xlink="http://www.w3.org/1999/xlink">
	<desc>
			Created with Pixso.
	</desc>
	<defs>
		<clipPath id="clip2081_182">
			<rect id="Frame" rx="0.000000" width="23.000000" height="23.000000" transform="translate(16.500000 16.500002)" fill="white" fill-opacity="0"/>
		</clipPath>
	</defs>
	<rect id="Frame 4" rx="27.500000" width="55.000000" height="55.000000" transform="translate(0.500000 0.500002)" fill="#FFFFFF" fill-opacity="1.000000"/>
	<rect id="Frame" rx="0.000000" width="23.000000" height="23.000000" transform="translate(16.500000 16.500002)" fill="#FFFFFF" fill-opacity="0"/>
	<g clip-path="url(#clip2081_182)">
		<path id="Vector" d="M25.17 25.82C25.92 26.57 26.93 27 28 27C29.06 27 30.07 26.57 30.82 25.82C31.57 25.07 32 24.06 32 23C32 21.93 31.57 20.92 30.82 20.17C30.07 19.42 29.06 19 28 19C26.93 19 25.92 19.42 25.17 20.17C24.42 20.92 24 21.93 24 23C24 24.06 24.42 25.07 25.17 25.82Z" stroke="#131313" stroke-opacity="0.700000" stroke-width="1.500000" stroke-linejoin="round"/>
		<path id="Vector" d="M22 37L22 35C22 33.93 22.42 32.92 23.17 32.17C23.92 31.42 24.93 31 26 31L30 31C31.06 31 32.07 31.42 32.82 32.17C33.57 32.92 34 33.93 34 35L34 37" stroke="#131313" stroke-opacity="0.700000" stroke-width="1.500000" stroke-linejoin="round" stroke-linecap="round"/>
	</g>
	<rect id="Frame 4" rx="27.500000" width="55.000000" height="55.000000" transform="translate(0.500000 0.500002)" stroke="#0E7A81" stroke-opacity="0.200000" stroke-width="1.000000"/>
</svg>
